<?xml version="1.0" encoding="UTF-8" standalone="no"?><!-- Generator: Gravit.io --><svg xmlns="http://www.w3.org/2000/svg" xmlns:xlink="http://www.w3.org/1999/xlink" style="isolation:isolate" viewBox="0 0 512 512" width="512pt" height="512pt"><path d=" M 193.905 100.999 C 193.905 97.913 191.128 95.416 187.696 95.416 C 184.263 95.416 181.486 97.913 181.486 100.999 C 181.486 115.661 199.472 135.791 201.521 138.043 C 202.753 139.385 204.535 140.082 206.33 140.082 C 207.712 140.082 209.107 139.668 210.265 138.817 C 212.915 136.86 213.297 133.343 211.126 130.955 C 204.469 123.66 193.905 109.079 193.905 100.999 Z  M 324.304 95.416 C 320.871 95.416 318.094 97.913 318.094 100.999 C 318.094 109.052 307.531 123.649 300.873 130.961 C 298.702 133.343 299.09 136.86 301.74 138.817 C 302.892 139.668 304.287 140.082 305.675 140.082 C 307.47 140.082 309.247 139.385 310.478 138.043 C 312.528 135.791 330.513 115.661 330.513 100.999 C 330.513 97.913 327.736 95.416 324.304 95.416 Z  M 256 95.416 C 252.568 95.416 249.79 97.913 249.79 100.999 L 249.79 134.499 C 249.79 137.585 252.568 140.082 256 140.082 C 259.432 140.082 262.21 137.585 262.21 134.499 L 262.21 100.999 C 262.209 97.913 259.432 95.416 256 95.416 Z  M 324.304 25.084 C 320.541 25.084 316.609 25.531 312.525 26.213 C 298.849 11.878 278.604 2.75 256 2.75 C 233.396 2.75 213.151 11.878 199.475 26.213 C 195.391 25.531 191.459 25.083 187.696 25.083 C 150.033 25.084 119.392 52.634 119.392 86.5 C 119.392 109.705 133.945 130.8 156.794 141.231 L 156.673 195.607 C 156.667 201.697 159.298 207.423 164.083 211.73 C 168.873 216.043 175.234 218.415 182.008 218.415 L 330.016 218.415 C 343.988 218.415 355.351 208.197 355.351 195.634 L 355.351 141.149 C 378.115 130.691 392.608 109.628 392.608 86.5 C 392.608 52.634 361.967 25.084 324.304 25.084 Z  M 342.932 195.635 C 342.932 202.036 337.135 207.249 330.016 207.249 L 182.008 207.249 C 178.557 207.249 175.313 206.038 172.869 203.841 C 170.431 201.644 169.085 198.727 169.091 195.619 L 169.124 191.749 L 342.932 191.749 L 342.932 195.635 Z  M 346.777 132.458 C 346.449 132.578 346.14 132.72 345.849 132.889 C 345.066 133.325 344.424 133.903 343.944 134.568 C 343.46 135.227 343.132 135.991 342.998 136.809 C 342.944 137.12 342.926 137.431 342.932 137.747 L 342.932 180.582 L 169.139 180.582 L 169.219 137.823 C 169.225 137.518 169.207 137.207 169.159 136.907 C 169.025 136.061 168.68 135.276 168.176 134.595 C 167.703 133.957 167.085 133.401 166.332 132.975 C 166.023 132.801 165.696 132.648 165.356 132.522 C 144.976 124.509 131.811 106.461 131.811 86.5 C 131.811 58.79 156.879 36.25 187.696 36.25 C 188.9 36.25 190.171 36.381 191.419 36.469 C 185.137 46.287 181.486 57.632 181.486 69.75 C 181.486 72.836 184.263 75.333 187.696 75.333 C 191.128 75.333 193.905 72.836 193.905 69.75 C 193.905 38.965 221.763 13.917 256 13.917 C 290.237 13.917 318.094 38.965 318.094 69.75 C 318.094 72.836 320.871 75.333 324.304 75.333 C 327.736 75.333 330.513 72.836 330.513 69.75 C 330.513 57.632 326.863 46.287 320.58 36.469 C 321.828 36.381 323.099 36.25 324.304 36.25 C 355.121 36.25 380.189 58.791 380.189 86.5 C 380.189 106.39 367.079 124.415 346.777 132.458 Z  M 419.971 332.368 L 419.97 332.368 C 419.97 386.563 375.879 430.655 321.683 430.655 C 306.23 430.655 291.053 427.026 277.382 420.116 C 277.838 419.58 278.294 419.035 278.754 418.467 C 283.894 412.12 289.286 403.834 294.783 393.839 C 296.299 391.083 297.149 388.128 297.401 385.161 C 304.115 387.94 311.466 389.484 319.174 389.484 C 350.668 389.484 376.29 363.862 376.29 332.368 C 376.29 300.874 350.668 275.252 319.174 275.252 C 287.681 275.252 262.059 300.874 262.059 332.368 C 262.059 341.037 264.009 349.257 267.481 356.625 C 263.647 355.795 259.816 355.378 256.002 355.378 C 252.188 355.378 248.357 355.795 244.523 356.625 C 247.995 349.257 249.945 341.037 249.945 332.368 C 249.945 300.874 224.323 275.252 192.829 275.252 C 161.335 275.252 135.713 300.874 135.713 332.368 C 135.713 363.862 161.335 389.484 192.829 389.484 C 200.536 389.484 207.888 387.941 214.603 385.161 C 214.855 388.128 215.705 391.084 217.22 393.839 C 222.716 403.835 228.109 412.121 233.248 418.467 C 233.709 419.036 234.167 419.584 234.624 420.122 C 224.948 425.026 214.605 428.259 203.784 429.742 C 200.458 430.198 198.132 433.263 198.587 436.588 C 199.005 439.633 201.611 441.841 204.601 441.841 C 204.875 441.841 205.153 441.822 205.433 441.784 C 219.007 439.924 231.911 435.616 243.849 428.978 C 248.056 432.043 252.083 433.559 256.001 433.559 C 259.917 433.559 263.943 432.044 268.148 428.981 C 284.467 438.038 302.896 442.81 321.683 442.81 C 336.301 442.81 350.262 439.948 363.045 434.767 C 375.039 453.484 381.831 474.838 382.878 497.095 L 129.124 497.095 C 130.171 474.85 136.956 453.505 148.939 434.793 C 158.945 438.835 169.569 441.416 180.515 442.38 C 180.697 442.397 180.877 442.403 181.056 442.403 C 184.171 442.403 186.825 440.021 187.102 436.858 C 187.397 433.515 184.924 430.566 181.582 430.272 C 131.367 425.851 92.033 382.846 92.033 332.367 L 92.033 200.392 C 115.517 221.957 146.31 234.079 178.592 234.079 L 283.657 234.079 L 343.893 233.642 C 349.173 233.208 354.398 232.451 359.54 231.378 C 359.696 231.35 359.85 231.315 360.002 231.277 C 382.329 226.526 403.079 215.872 419.971 200.383 L 419.971 332.368 L 419.971 332.368 L 419.971 332.368 L 419.971 332.368 L 419.971 332.368 Z  M 231.566 374.667 C 239.798 369.933 248.019 367.532 256.001 367.532 C 263.983 367.532 272.203 369.933 280.435 374.667 C 285.05 377.322 286.708 383.294 284.131 387.981 C 270.566 412.651 260.5 421.404 256.001 421.404 C 251.503 421.404 241.436 412.651 227.87 387.981 C 225.293 383.294 226.951 377.322 231.566 374.667 L 231.566 374.667 L 231.566 374.667 Z  M 192.828 377.329 C 168.037 377.329 147.867 357.159 147.867 332.368 C 147.867 307.576 168.037 287.407 192.828 287.407 C 217.62 287.407 237.789 307.577 237.789 332.368 C 237.789 357.16 217.62 377.329 192.828 377.329 L 192.828 377.329 Z  M 428.155 179.665 C 425.765 178.783 423.085 179.481 421.431 181.413 C 406.37 199.003 375.59 214.557 364.561 217.64 C 353.532 220.724 351.75 222.243 256 222.243 C 160.25 222.243 158.326 220.704 147.439 217.669 C 136.552 214.635 105.689 199.072 90.569 181.414 C 88.916 179.481 86.231 178.785 83.846 179.666 C 81.46 180.548 79.876 182.823 79.876 185.366 L 79.876 332.368 C 79.876 360.157 90.234 386.714 109.043 407.147 C 117.439 416.268 127.188 423.811 137.86 429.579 C 124.081 451.637 116.826 476.941 116.826 503.172 C 116.826 506.53 119.547 509.25 122.903 509.25 L 389.097 509.25 C 392.454 509.25 395.174 506.53 395.174 503.172 C 395.174 476.925 387.911 451.612 374.119 429.547 C 408.632 410.849 432.124 374.301 432.124 332.368 L 432.124 185.366 C 432.124 182.822 430.541 180.547 428.155 179.665 L 428.155 179.665 L 428.155 179.665 L 428.155 179.665 Z  M 274.213 332.368 C 274.213 307.576 294.383 287.407 319.173 287.407 C 343.965 287.407 364.135 307.577 364.135 332.368 C 364.135 357.16 343.965 377.329 319.173 377.329 C 294.381 377.329 274.213 357.16 274.213 332.368 Z  M 192.828 321.762 C 189.472 321.762 186.751 324.482 186.751 327.84 L 186.751 336.896 C 186.751 340.253 189.472 342.973 192.828 342.973 C 196.185 342.973 198.906 340.253 198.906 336.896 L 198.906 327.84 C 198.906 324.482 196.184 321.762 192.828 321.762 Z  M 319.173 321.762 C 315.816 321.762 313.096 324.482 313.096 327.84 L 313.096 336.896 C 313.096 340.252 315.817 342.973 319.173 342.973 C 322.531 342.973 325.251 340.253 325.251 336.896 L 325.251 327.84 C 325.251 324.482 322.531 321.762 319.173 321.762 Z " fill-rule="evenodd" fill="rgb(255,255,255)"/></svg>