<svg width="512.001" xmlns="http://www.w3.org/2000/svg" height="512.001" id="screenshot-b1b1f470-81dc-11eb-859c-b546a8cd1a43" viewBox="-0 -0 512.001 512.001" xmlns:xlink="http://www.w3.org/1999/xlink" fill="none" version="1.1"><g id="shape-b1b1f470-81dc-11eb-859c-b546a8cd1a43"><defs><clipPath id="frame-clip-b1b1f470-81dc-11eb-859c-b546a8cd1a43-render-1" class="frame-clip frame-clip-def"><rect rx="0" ry="0" x="0" y="0" width="512" height="512" transform="matrix(1.000000, -0.000002, 0.000002, 1.000000, -0.000384, 0.000442)"/></clipPath></defs><g><g><g clip-path="url(#frame-clip-b1b1f470-81dc-11eb-859c-b546a8cd1a43-render-1)" fill="none"><g class="fills" id="fills-b1b1f470-81dc-11eb-859c-b546a8cd1a43"><rect rx="0" ry="0" x="0" y="0" width="512" height="512" transform="matrix(1.000000, -0.000002, 0.000002, 1.000000, -0.000384, 0.000442)" class="frame-background"/></g><g class="frame-children"><g id="shape-b1b21b80-81dc-11eb-859c-b546a8cd1a43" style="display: none;"><defs><pattern patternUnits="userSpaceOnUse" x="-0.0003820564370471402" y="-0.0000023092410970093624" width="537.6" height="537.6" id="fill-0-render-2"><g><g><rect x="0" y="0" width="537.6" height="537.6" fill="none"/><image href="http://penpot-frontend/assets/by-file-media-id/837b57a0-7f97-11eb-bb0d-52cb2ad0cd57" preserveAspectRatio="none" x="0" y="0" width="512" height="512"/></g></g></pattern></defs><g class="fills" id="fills-b1b21b80-81dc-11eb-859c-b546a8cd1a43"><rect fill="url(#fill-0-render-2)" rx="0" ry="0" x="-0.0003820564370471402" y="-0.0000023092410970093624" width="512" height="512" transform="matrix(1.000000, 0.000000, -0.000000, 1.000000, 0.000000, 0.000000)"/></g></g><g width="512pt" xml:space="preserve" height="512pt" id="shape-79f22663-3dcc-80c5-8004-f4a130e9dfe5" style="fill: rgb(0, 0, 0);" ry="0" rx="0" filter="url(#filter-render-3)" version="1.1"><defs><filter id="filter-render-3" x="-0.08132530120481928" y="-0.06192660550458716" width="1.1987951807228916" height="1.151376146788991" filterUnits="objectBoundingBox" color-interpolation-filters="sRGB"><feFlood flood-opacity="0" result="BackgroundImageFix"/><feColorMatrix in="SourceAlpha" type="matrix" values="0 0 0 0 0 0 0 0 0 0 0 0 0 0 0 0 0 0 127 0"/><feOffset dx="4" dy="4"/><feGaussianBlur stdDeviation="2"/><feColorMatrix type="matrix" values="0 0 0 0 0 0 0 0 0 0 0 0 0 0 0 0 0 0 0.2 0"/><feBlend mode="normal" in2="BackgroundImageFix" result="filter_79f22663-3dcc-80c5-8004-f4a158fe73c1"/><feBlend mode="normal" in="SourceGraphic" in2="filter_79f22663-3dcc-80c5-8004-f4a158fe73c1" result="shape"/></filter><filter id="filter-shadow-render-3" x="-0.08132530120481928" y="-0.06192660550458716" width="1.1987951807228916" height="1.151376146788991" filterUnits="objectBoundingBox" color-interpolation-filters="sRGB"><feFlood flood-opacity="0" result="BackgroundImageFix"/><feColorMatrix in="SourceAlpha" type="matrix" values="0 0 0 0 0 0 0 0 0 0 0 0 0 0 0 0 0 0 127 0"/><feOffset dx="4" dy="4"/><feGaussianBlur stdDeviation="2"/><feColorMatrix type="matrix" values="0 0 0 0 0 0 0 0 0 0 0 0 0 0 0 0 0 0 0.2 0"/><feBlend mode="normal" in2="BackgroundImageFix" result="filter_79f22663-3dcc-80c5-8004-f4a158fe73c1"/><feBlend mode="normal" in="SourceGraphic" in2="filter_79f22663-3dcc-80c5-8004-f4a158fe73c1" result="shape"/></filter></defs><g id="shape-79f22663-3dcc-80c5-8004-f4a130e9dfe6"><g class="fills" id="fills-79f22663-3dcc-80c5-8004-f4a130e9dfe6"><path d="M243.820,413.451C230.918,421.869,213.063,426.002,194.801,427.034C177.380,428.017,159.699,426.108,145.578,420.627C144.279,429.856,145.362,441.278,151.062,450.890C158.337,463.156,172.799,473.463,201.878,474.000L310.122,474.000C339.200,473.463,353.664,463.156,360.939,450.890C366.639,441.278,367.722,429.856,366.423,420.627C352.302,426.108,334.620,428.017,317.199,427.034C298.936,426.002,281.081,421.870,268.180,413.452C260.248,419.068,251.776,419.085,243.820,413.451ZZ" style="isolation: isolate; display: inline; stroke: none; stroke-width: 13.0004; stroke-linejoin: round; fill: rgb(255, 255, 255); fill-opacity: 1;"/></g></g><g id="shape-79f22663-3dcc-80c5-8004-f4a130e9dfe7"><g class="fills" id="fills-79f22663-3dcc-80c5-8004-f4a130e9dfe7"><path d="M256.001,351.277C250.167,351.277,239.526,352.891,232.542,356.346C229.050,358.073,226.612,360.187,225.566,362.156C224.521,364.125,224.220,366.104,226.005,369.934C230.006,378.522,235.250,388.404,240.845,395.829C246.440,403.255,252.293,407.463,256.001,407.463C259.708,407.463,265.559,403.255,271.154,395.829C276.749,388.404,281.993,378.522,285.995,369.934C287.780,366.104,287.479,364.125,286.433,362.156C285.388,360.187,282.951,358.073,279.459,356.346C272.475,352.891,261.834,351.277,256.001,351.277ZZ" style="isolation: isolate; display: inline; stroke: none; stroke-width: 13.0004; stroke-linejoin: round; fill: rgb(255, 255, 255); fill-opacity: 1;"/></g></g><g id="shape-79f22663-3dcc-80c5-8004-f4a130e9dfe8"><g class="fills" id="fills-79f22663-3dcc-80c5-8004-f4a130e9dfe8"><path d="M192.755,278.495C171.525,278.495,154.250,296.229,154.250,318.523C154.250,340.817,171.525,358.552,192.755,358.552C213.985,358.552,231.260,340.817,231.260,318.523C231.260,296.229,213.985,278.495,192.755,278.495ZZM319.244,278.495C298.014,278.495,280.739,296.229,280.739,318.523C280.739,340.817,298.014,358.552,319.244,358.552C340.474,358.552,357.749,340.817,357.749,318.523C357.749,296.229,340.474,278.495,319.244,278.495ZZM320.241,306.837C320.517,306.801,320.808,306.805,321.113,306.855C323.265,307.204,325.282,308.148,326.930,309.577C328.800,311.198,330.717,314.950,330.937,317.418C331.131,319.593,330.716,321.784,329.741,323.736C328.634,325.952,325.480,328.741,323.148,329.564C321.093,330.290,318.872,330.429,316.742,329.965C314.326,329.438,310.850,327.065,309.477,325.004C308.268,323.188,307.584,321.065,307.507,318.883C307.419,316.407,310.103,315.142,312.442,315.994L315.007,316.928C315.853,317.236,316.798,317.056,317.472,316.460C318.147,315.864,318.442,314.947,318.243,314.068L317.638,311.400C317.155,309.273,318.309,307.085,320.241,306.837ZZM193.755,306.891C194.031,306.855,194.322,306.859,194.628,306.909C196.779,307.257,198.797,308.201,200.444,309.631C202.314,311.252,204.229,315.004,204.450,317.472C204.644,319.647,204.230,321.838,203.255,323.790C202.148,326.006,198.995,328.795,196.662,329.618C194.607,330.344,192.384,330.483,190.255,330.019C187.839,329.492,184.364,327.119,182.991,325.058C181.782,323.242,181.098,321.119,181.021,318.937C180.933,316.461,183.616,315.196,185.954,316.047L188.522,316.982C189.366,317.289,190.311,317.109,190.985,316.513C191.659,315.917,191.955,315.000,191.756,314.122L191.152,311.454C190.669,309.327,191.823,307.139,193.755,306.891ZZ" style="isolation: isolate; display: inline; stroke: none; stroke-width: 13.0004; stroke-linejoin: round; fill: rgb(255, 255, 255); fill-opacity: 1;"/></g></g><g id="shape-79f22663-3dcc-80c5-8004-f4a130e9dfe9"><g class="fills" id="fills-79f22663-3dcc-80c5-8004-f4a130e9dfe9"><path d="M91.834,200.616C88.221,296.551,90.370,323.540,94.600,345.139C98.485,364.969,120.270,393.198,144.810,406.041C156.315,412.062,175.510,415.063,194.070,414.015C209.412,413.148,224.276,409.415,234.252,403.931C233.739,403.284,233.220,402.644,232.719,401.979C226.370,393.553,220.946,383.198,216.777,374.253C215.557,371.633,214.917,368.985,214.757,366.431C208.080,369.704,200.643,371.592,192.756,371.592C164.266,371.592,141.236,347.645,141.236,318.523C141.236,289.401,164.266,265.454,192.756,265.454C221.245,265.454,244.276,289.401,244.276,318.523C244.276,327.520,242.067,336.016,238.189,343.471C244.680,341.744,251.149,341.073,256.000,341.073C260.851,341.073,267.320,341.744,273.811,343.471C269.933,336.016,267.724,327.520,267.724,318.523C267.724,289.401,290.755,265.454,319.244,265.454C347.734,265.454,370.764,289.401,370.764,318.523C370.764,347.645,347.734,371.592,319.244,371.592C311.357,371.592,303.920,369.704,297.242,366.431C297.083,368.985,296.443,371.633,295.223,374.253C291.054,383.198,285.630,393.553,279.281,401.979C278.780,402.644,278.261,403.284,277.748,403.931C287.724,409.415,302.588,413.148,317.930,414.015C336.490,415.063,355.685,412.062,367.190,406.041C391.730,393.198,413.515,364.969,417.400,345.139C421.630,323.540,423.779,296.551,420.166,200.616C419.797,190.802,413.578,188.226,405.689,194.048C388.952,206.399,370.012,215.792,352.421,215.610L159.579,215.610C141.988,215.792,123.048,206.399,106.311,194.048C98.492,188.278,92.206,190.736,91.834,200.616ZZ" style="isolation: isolate; display: inline; stroke: none; stroke-width: 13.0004; stroke-linejoin: round; fill: rgb(255, 255, 255); fill-opacity: 1;"/></g></g><g id="shape-79f22663-3dcc-80c5-8004-f4a130e9dfea"><g class="fills" id="fills-79f22663-3dcc-80c5-8004-f4a130e9dfea"><path d="M177.329,199.255L177.442,162.336C117.974,135.098,139.411,54.304,208.001,57.429M334.671,199.255L334.558,162.336C394.026,135.098,372.589,54.304,303.999,57.429M196.722,95.649C196.722,61.949,222.366,38.000,256.000,38.000C289.634,38.000,315.278,61.949,315.278,95.649" style="isolation: isolate; fill: none; paint-order: markers; stroke-linejoin: round; stroke-dasharray: none; display: inline;"/></g><g id="strokes-79f22663-3dcc-80c5-8004-f4a130e9dfea" class="strokes" style="isolation: isolate; fill: none; paint-order: markers; stroke-linejoin: round; stroke-dasharray: none; display: inline;"><g class="stroke-shape"><path d="M177.329,199.255L177.442,162.336C117.974,135.098,139.411,54.304,208.001,57.429M334.671,199.255L334.558,162.336C394.026,135.098,372.589,54.304,303.999,57.429M196.722,95.649C196.722,61.949,222.366,38.000,256.000,38.000C289.634,38.000,315.278,61.949,315.278,95.649" style="fill: none; stroke-width: 11.2151; stroke: rgb(255, 255, 255); stroke-opacity: 1; stroke-linecap: round;"/></g></g></g><g id="shape-79f22663-3dcc-80c5-8004-f4a130e9dfeb"><g class="fills" id="fills-79f22663-3dcc-80c5-8004-f4a130e9dfeb"><path d="M198.656,122.658C199.094,129.061,202.916,140.422,216.689,154.028M313.344,122.658C312.906,129.061,309.084,140.422,295.311,154.028" style="isolation: isolate; fill: none; paint-order: markers; stroke-linejoin: round; stroke-dasharray: none; display: inline;"/></g><g id="strokes-79f22663-3dcc-80c5-8004-f4a130e9dfeb" class="strokes" style="isolation: isolate; fill: none; paint-order: markers; stroke-linejoin: round; stroke-dasharray: none; display: inline;"><g class="stroke-shape"><path d="M198.656,122.658C199.094,129.061,202.916,140.422,216.689,154.028M313.344,122.658C312.906,129.061,309.084,140.422,295.311,154.028" style="fill: none; stroke-width: 12.2753; stroke: rgb(255, 255, 255); stroke-opacity: 1; stroke-linecap: round;"/></g></g></g><g id="shape-79f22663-3dcc-80c5-8004-f4a130e9dfec"><g class="fills" id="fills-79f22663-3dcc-80c5-8004-f4a130e9dfec"><path d="M256.000,122.260L256.000,153.947" style="isolation: isolate; fill: none; paint-order: markers; stroke-linejoin: round; stroke-dasharray: none; display: inline;"/></g><g id="strokes-79f22663-3dcc-80c5-8004-f4a130e9dfec" class="strokes" style="isolation: isolate; fill: none; paint-order: markers; stroke-linejoin: round; stroke-dasharray: none; display: inline;"><g class="stroke-shape"><path d="M256.000,122.260L256.000,153.947" style="fill: none; stroke-width: 12.2753; stroke: rgb(255, 255, 255); stroke-opacity: 1; stroke-linecap: round;"/></g></g></g></g></g></g></g><g id="strokes-b1b1f470-81dc-11eb-859c-b546a8cd1a43" class="strokes"><g class="stroke-shape"><rect width="512" height="512" class="frame-background" x="0" transform="matrix(1.000000, -0.000002, 0.000002, 1.000000, -0.000384, 0.000442)" style="fill: none;" ry="0" rx="0" y="0"/></g></g></g></g></svg>